<svg xmlns="http://www.w3.org/2000/svg" xmlns:xlink="http://www.w3.org/1999/xlink" viewBox="0 0 359.45 80.18"><defs><style>.cls-1,.cls-2,.cls-3{fill:none;}.cls-2{clip-rule:evenodd;}.cls-3{fill-rule:evenodd;}.cls-4{clip-path:url(#clip-path);}.cls-5{fill:#bfbfbf;}.cls-6{clip-path:url(#clip-path-2);}.cls-7{fill:#28aee4;}</style><clipPath id="clip-path" transform="translate(-51.17 -35.96)"><rect class="cls-1" width="461.49" height="168.46"/></clipPath><clipPath id="clip-path-2" transform="translate(-51.17 -35.96)"><polygon class="cls-2" points="0 168.46 461.49 168.46 461.49 0 0 0 0 168.46 0 168.46"/></clipPath></defs><title>Adapt text</title><g id="Layer_2" data-name="Layer 2"><g id="Layer_1-2" data-name="Layer 1"><g id="Text"><g class="cls-4"><path class="cls-5" d="M86.08,92.38,54.06,78a5.24,5.24,0,0,1-2.13-1.72,4.14,4.14,0,0,1-.76-2.45V73.2a4.14,4.14,0,0,1,.76-2.45A5.24,5.24,0,0,1,54.06,69l32-14.37a3.68,3.68,0,0,1,1.29-.24,3.16,3.16,0,0,1,3.21,3.21,3,3,0,0,1-.61,1.8,3.54,3.54,0,0,1-1.56,1.25L59.52,73.52,88.41,86.36A3.59,3.59,0,0,1,90,87.6a3,3,0,0,1,.61,1.81,3.16,3.16,0,0,1-3.21,3.21A3.68,3.68,0,0,1,86.08,92.38Z" transform="translate(-51.17 -35.96)"/></g><g class="cls-6"><g class="cls-4"><path class="cls-7" d="M99.76,96.63a3.54,3.54,0,0,1-1-2.56,4.32,4.32,0,0,1,.4-1.61l20.47-48.31a6,6,0,0,1,1.8-2.37,4.44,4.44,0,0,1,2.85-.93h.8a4.4,4.4,0,0,1,2.85.93,6.06,6.06,0,0,1,1.81,2.37l20.47,48.31a4.52,4.52,0,0,1,.4,1.61,3.55,3.55,0,0,1-1,2.56,3.44,3.44,0,0,1-2.6,1.05,3.67,3.67,0,0,1-2.05-.6,3.85,3.85,0,0,1-1.41-1.65l-5.21-12.52H111l-5.22,12.52a3.89,3.89,0,0,1-1.4,1.65,3.7,3.7,0,0,1-2,.6A3.45,3.45,0,0,1,99.76,96.63Zm14.09-20.38h21.67L124.68,50.16Z" transform="translate(-51.17 -35.96)"/><path class="cls-7" d="M168.38,95.55a19.2,19.2,0,0,1-7.22-7.38,22.52,22.52,0,0,1-2.77-11.36,22.52,22.52,0,0,1,2.77-11.36,19.27,19.27,0,0,1,7.22-7.38,18.79,18.79,0,0,1,9.43-2.53,18.48,18.48,0,0,1,13.73,6.1V42a3.52,3.52,0,0,1,1.08-2.65,3.6,3.6,0,0,1,2.61-1,3.44,3.44,0,0,1,2.57,1.08,3.64,3.64,0,0,1,1,2.61V94.07a3.57,3.57,0,0,1-3.61,3.61,3.61,3.61,0,0,1-2.61-1.05,3.41,3.41,0,0,1-1.08-2.56V92a18.44,18.44,0,0,1-13.73,6.1A18.79,18.79,0,0,1,168.38,95.55Zm17.42-5.94a19.66,19.66,0,0,0,5.74-4.37V68.38A20,20,0,0,0,185.8,64a15.13,15.13,0,0,0-6.94-1.65,12.58,12.58,0,0,0-9.55,3.78q-3.62,3.77-3.62,10.67t3.62,10.67a12.58,12.58,0,0,0,9.55,3.78A15.13,15.13,0,0,0,185.8,89.61Z" transform="translate(-51.17 -35.96)"/><path class="cls-7" d="M215.41,96.63a11.38,11.38,0,0,1-4.77-4.21A11.59,11.59,0,0,1,208.87,86a11.25,11.25,0,0,1,4.7-9.47Q218.27,73,227.33,73H237V72.4c0-3.53-.87-6.08-2.6-7.63s-4.46-2.33-8.15-2.33a26.72,26.72,0,0,0-5.42.49,45.07,45.07,0,0,0-5.25,1.44,4.39,4.39,0,0,1-1.05.16,2.82,2.82,0,0,1-2.08-.88,3,3,0,0,1-.89-2.17,3.11,3.11,0,0,1,2.09-3,35.21,35.21,0,0,1,13.88-2.89,18.08,18.08,0,0,1,9.35,2.25,14.07,14.07,0,0,1,5.62,5.82,16.83,16.83,0,0,1,1.81,7.74V94.07a3.39,3.39,0,0,1-1.09,2.56,3.6,3.6,0,0,1-2.6,1.05A3.59,3.59,0,0,1,237,94.07V92A20.13,20.13,0,0,1,222,98.08,14.86,14.86,0,0,1,215.41,96.63Zm16.1-6.7A18.89,18.89,0,0,0,237,85.64V78.9H228.3q-12.12,0-12.12,6.34a5.94,5.94,0,0,0,2,4.65q2,1.77,6.54,1.77A14.55,14.55,0,0,0,231.51,89.93Z" transform="translate(-51.17 -35.96)"/><path class="cls-7" d="M257.67,115.05a3.63,3.63,0,0,1-1-2.6V59.55a3.57,3.57,0,0,1,3.61-3.61A3.61,3.61,0,0,1,262.85,57a3.41,3.41,0,0,1,1.08,2.56v2.09a18.48,18.48,0,0,1,13.73-6.1,18.79,18.79,0,0,1,9.43,2.53,19.27,19.27,0,0,1,7.22,7.38,22.52,22.52,0,0,1,2.77,11.36,22.52,22.52,0,0,1-2.77,11.36,19.2,19.2,0,0,1-7.22,7.38,18.79,18.79,0,0,1-9.43,2.53A18.44,18.44,0,0,1,263.93,92v20.47a3.57,3.57,0,0,1-3.69,3.69A3.41,3.41,0,0,1,257.67,115.05Zm28.49-27.57q3.61-3.77,3.62-10.67t-3.62-10.67a12.58,12.58,0,0,0-9.55-3.78A15.13,15.13,0,0,0,269.67,64a20,20,0,0,0-5.74,4.37V85.24a19.66,19.66,0,0,0,5.74,4.37,15.13,15.13,0,0,0,6.94,1.65A12.58,12.58,0,0,0,286.16,87.48Z" transform="translate(-51.17 -35.96)"/><path class="cls-7" d="M309.68,87.48V62.6H304a1.5,1.5,0,0,1-1.52-1.52,1.67,1.67,0,0,1,.72-1.36L314.09,49a2.05,2.05,0,0,1,1.37-.72,1.4,1.4,0,0,1,1.08.48,1.63,1.63,0,0,1,.44,1.12v6.42h9.07a3.05,3.05,0,0,1,2.25.89,3,3,0,0,1,.88,2.24,3.06,3.06,0,0,1-.88,2.21,3,3,0,0,1-2.25.92H317V86.84c0,2.09.5,3.41,1.49,4a7.49,7.49,0,0,0,3.73.84,11.15,11.15,0,0,0,3.21-.48c.21-.06.44-.11.68-.16a4,4,0,0,1,.93-.08,2.84,2.84,0,0,1,2,.84,2.7,2.7,0,0,1,.88,2,3,3,0,0,1-1.84,2.81,15.63,15.63,0,0,1-6.66,1.45Q309.67,98.08,309.68,87.48Z" transform="translate(-51.17 -35.96)"/></g><g class="cls-6"><g class="cls-4"><path class="cls-5" d="M336.12,103.94a3.26,3.26,0,0,1-.92-2.33,4,4,0,0,1,.24-1.2l21.27-62.2a3.33,3.33,0,0,1,1.13-1.61,3.08,3.08,0,0,1,2-.64,3.16,3.16,0,0,1,2.37,1,3.26,3.26,0,0,1,.92,2.33,4,4,0,0,1-.24,1.2l-21.27,62.2a3.37,3.37,0,0,1-1.12,1.61,3.1,3.1,0,0,1-2,.64A3.16,3.16,0,0,1,336.12,103.94Z" transform="translate(-51.17 -35.96)"/></g><g class="cls-6"><g class="cls-4"><path class="cls-5" d="M372.14,91.7a3.18,3.18,0,0,1-.32-4.1,3.59,3.59,0,0,1,1.56-1.24l28.9-12.84-28.9-12.84a3.54,3.54,0,0,1-1.56-1.25,3,3,0,0,1-.6-1.8,3.14,3.14,0,0,1,3.21-3.21,3.21,3.21,0,0,1,1.28.24l32,14.37a5.24,5.24,0,0,1,2.13,1.72,4.14,4.14,0,0,1,.76,2.45v.64a4.14,4.14,0,0,1-.76,2.45A5.24,5.24,0,0,1,407.73,78l-32,14.37a3.21,3.21,0,0,1-1.28.24A3.12,3.12,0,0,1,372.14,91.7Z" transform="translate(-51.17 -35.96)"/></g></g></g></g></g></g></g></svg>