<svg xmlns="http://www.w3.org/2000/svg" viewBox="0 0 359.45 80.18"><defs><style>.cls-1{fill:#bfbfbf;}.cls-2{fill:#28aee4;}</style></defs><title>adapt_text</title><g id="Layer_2" data-name="Layer 2"><g id="Layer_1-2" data-name="Layer 1"><g id="Lockup"><g id="Adapt_Text" data-name="Adapt Text"><path id="_" data-name="&lt;" class="cls-1" d="M34.91,56.42l-32-14.36A5.34,5.34,0,0,1,.76,40.33,4.14,4.14,0,0,1,0,37.88v-.64a4.14,4.14,0,0,1,.76-2.45,5.32,5.32,0,0,1,2.13-1.72l32-14.37a3.68,3.68,0,0,1,1.29-.24,3.17,3.17,0,0,1,2.61,5,3.67,3.67,0,0,1-1.57,1.24L8.35,37.56,37.24,50.4a3.7,3.7,0,0,1,1.57,1.25,3,3,0,0,1,.6,1.8,3.16,3.16,0,0,1-3.21,3.21A3.68,3.68,0,0,1,34.91,56.42Z"/><path id="A" class="cls-2" d="M48.59,60.68a3.58,3.58,0,0,1-1-2.57A4.36,4.36,0,0,1,48,56.5L68.46,8.19a6.21,6.21,0,0,1,1.8-2.37,4.49,4.49,0,0,1,2.85-.92h.81a4.44,4.44,0,0,1,2.84.92,6.13,6.13,0,0,1,1.81,2.37L99,56.5a4.57,4.57,0,0,1,.4,1.61,3.62,3.62,0,0,1-1,2.57,3.48,3.48,0,0,1-2.61,1,3.67,3.67,0,0,1-2-.6,3.77,3.77,0,0,1-1.4-1.65L87.16,47H59.87L54.65,59.47a3.84,3.84,0,0,1-1.4,1.65,3.7,3.7,0,0,1-2,.6A3.48,3.48,0,0,1,48.59,60.68ZM62.68,40.29H84.35L73.51,14.21Z"/><path id="d" class="cls-2" d="M117.21,59.59A19.13,19.13,0,0,1,110,52.21a22.5,22.5,0,0,1-2.77-11.36A22.46,22.46,0,0,1,110,29.5a19.23,19.23,0,0,1,7.22-7.39,18.89,18.89,0,0,1,9.43-2.53,18.48,18.48,0,0,1,13.73,6.1V6a3.54,3.54,0,0,1,1.08-2.65,3.66,3.66,0,0,1,2.61-1,3.44,3.44,0,0,1,2.57,1.08,3.64,3.64,0,0,1,1,2.61V58.11a3.55,3.55,0,0,1-3.61,3.61,3.66,3.66,0,0,1-2.61-1,3.45,3.45,0,0,1-1.08-2.57V56a18.44,18.44,0,0,1-13.73,6.1A18.79,18.79,0,0,1,117.21,59.59Zm17.42-5.94a19.66,19.66,0,0,0,5.74-4.37V32.43a19.87,19.87,0,0,0-5.74-4.38,15.25,15.25,0,0,0-6.94-1.64,12.58,12.58,0,0,0-9.55,3.77q-3.61,3.76-3.61,10.67t3.61,10.68a12.61,12.61,0,0,0,9.55,3.77A15.13,15.13,0,0,0,134.63,53.65Z"/><path id="a-2" data-name="a" class="cls-2" d="M164.25,60.68a11.44,11.44,0,0,1-4.78-4.22,11.57,11.57,0,0,1-1.77-6.38,11.26,11.26,0,0,1,4.7-9.47q4.69-3.53,13.76-3.53h9.72v-.64q0-5.3-2.61-7.63t-8.15-2.32a27.51,27.51,0,0,0-5.42.48,45.07,45.07,0,0,0-5.25,1.44,4.39,4.39,0,0,1-1,.16,2.82,2.82,0,0,1-2.08-.88,3,3,0,0,1-.89-2.17,3.11,3.11,0,0,1,2.09-3.05,35.43,35.43,0,0,1,13.88-2.89,18.15,18.15,0,0,1,9.36,2.25,14.11,14.11,0,0,1,5.61,5.82,16.83,16.83,0,0,1,1.81,7.74V58.11a3.45,3.45,0,0,1-1.08,2.57,3.67,3.67,0,0,1-2.61,1,3.55,3.55,0,0,1-3.61-3.61V56a20.15,20.15,0,0,1-15.09,6.1A14.91,14.91,0,0,1,164.25,60.68ZM180.34,54a19.27,19.27,0,0,0,5.54-4.3V42.94h-8.75Q165,42.94,165,49.28a5.93,5.93,0,0,0,2,4.65c1.31,1.18,3.5,1.77,6.55,1.77A14.53,14.53,0,0,0,180.34,54Z"/><path id="p" class="cls-2" d="M206.5,79.1a3.67,3.67,0,0,1-1-2.61V23.6A3.55,3.55,0,0,1,209.07,20a3.6,3.6,0,0,1,2.61,1,3.42,3.42,0,0,1,1.08,2.57v2.08a18.48,18.48,0,0,1,13.73-6.1,18.89,18.89,0,0,1,9.43,2.53,19.16,19.16,0,0,1,7.22,7.39,22.46,22.46,0,0,1,2.77,11.35,22.5,22.5,0,0,1-2.77,11.36,19.06,19.06,0,0,1-7.22,7.38,18.79,18.79,0,0,1-9.43,2.53A18.44,18.44,0,0,1,212.76,56V76.49a3.58,3.58,0,0,1-1,2.65,3.62,3.62,0,0,1-2.65,1A3.44,3.44,0,0,1,206.5,79.1ZM235,51.53q3.62-3.78,3.62-10.68T235,30.18a12.58,12.58,0,0,0-9.55-3.77,15.25,15.25,0,0,0-6.94,1.64,20,20,0,0,0-5.74,4.38V49.28a19.8,19.8,0,0,0,5.74,4.37,15.13,15.13,0,0,0,6.94,1.65A12.61,12.61,0,0,0,235,51.53Z"/><path id="t" class="cls-2" d="M258.51,51.53V26.65h-5.7a1.5,1.5,0,0,1-1.52-1.53,1.67,1.67,0,0,1,.72-1.36l10.92-10.68a2,2,0,0,1,1.36-.72,1.4,1.4,0,0,1,1.08.48,1.59,1.59,0,0,1,.44,1.13v6.42h9.07a3.15,3.15,0,0,1,2.25,5.33,3,3,0,0,1-2.25.93h-9.07V50.88c0,2.09.5,3.42,1.49,4a7.49,7.49,0,0,0,3.73.84,11.15,11.15,0,0,0,3.21-.48l.68-.16a4.65,4.65,0,0,1,.93-.08,2.82,2.82,0,0,1,2,.84,2.72,2.72,0,0,1,.89,2,3.05,3.05,0,0,1-1.85,2.81,15.77,15.77,0,0,1-6.66,1.44Q258.52,62.12,258.51,51.53Z"/><path id="_2" data-name="/" class="cls-1" d="M285,68a3.23,3.23,0,0,1-.93-2.33,4,4,0,0,1,.24-1.2l21.27-62.2A3.44,3.44,0,0,1,306.67.64,3.42,3.42,0,0,1,311,1,3.24,3.24,0,0,1,312,3.29a4,4,0,0,1-.24,1.2L290.45,66.7a3.4,3.4,0,0,1-1.12,1.6A3.42,3.42,0,0,1,285,68Z"/><path id="_3" data-name="&gt;" class="cls-1" d="M321,55.74a3.12,3.12,0,0,1-.92-2.29,3,3,0,0,1,.6-1.8,3.58,3.58,0,0,1,1.57-1.25l28.89-12.84L322.22,24.72a3.56,3.56,0,0,1-1.57-1.24,3.09,3.09,0,0,1-.6-1.81,3.14,3.14,0,0,1,3.21-3.21,3.21,3.21,0,0,1,1.28.24l32,14.37a5.29,5.29,0,0,1,2.12,1.72,4.14,4.14,0,0,1,.76,2.45v.64a4.14,4.14,0,0,1-.76,2.45,5.31,5.31,0,0,1-2.12,1.73l-32,14.36a3.21,3.21,0,0,1-1.28.24A3.08,3.08,0,0,1,321,55.74Z"/></g></g></g></g></svg>