<svg xmlns="http://www.w3.org/2000/svg" viewBox="0 0 196.26 169.65"><defs><style>.cls-1{fill:#bfbfbf;}.cls-2{fill:#28aee4;}.cls-3{fill:#fff;}</style></defs><title>logo_stacked</title><g id="Layer_2" data-name="Layer 2"><g id="Layer_1-2" data-name="Layer 1"><g id="Stacked"><g id="Adapt_Text" data-name="Adapt Text"><path id="_" data-name="&lt;" class="cls-1" d="M19.06,156.68,1.58,148.84a2.83,2.83,0,0,1-1.16-1A2.24,2.24,0,0,1,0,146.56v-.35a2.25,2.25,0,0,1,.42-1.34,2.81,2.81,0,0,1,1.16-.94l17.48-7.85a2.21,2.21,0,0,1,.7-.13,1.74,1.74,0,0,1,1.76,1.76,1.65,1.65,0,0,1-.33,1,2,2,0,0,1-.86.68l-15.77,7,15.77,7a2.06,2.06,0,0,1,.86.68,1.73,1.73,0,0,1-.18,2.24,1.7,1.7,0,0,1-1.25.5A2,2,0,0,1,19.06,156.68Z"/><path id="A" class="cls-2" d="M26.53,159a2,2,0,0,1-.55-1.4,2.55,2.55,0,0,1,.22-.88l11.18-26.38a3.41,3.41,0,0,1,1-1.29,2.49,2.49,0,0,1,1.56-.5h.44a2.44,2.44,0,0,1,1.55.5,3.43,3.43,0,0,1,1,1.29l11.17,26.38a2.34,2.34,0,0,1,.22.88,1.93,1.93,0,0,1-.55,1.4,1.88,1.88,0,0,1-1.42.57,2,2,0,0,1-1.12-.33,2.09,2.09,0,0,1-.76-.9l-2.85-6.83H32.69l-2.85,6.83a2.11,2.11,0,0,1-.77.9,2,2,0,0,1-1.11.33A1.9,1.9,0,0,1,26.53,159Zm7.69-11.13H46.05l-5.91-14.24Z"/><path id="d" class="cls-2" d="M64,158.41a10.49,10.49,0,0,1-4-4,13.48,13.48,0,0,1,0-12.4,10.49,10.49,0,0,1,4-4,10.25,10.25,0,0,1,5.15-1.38,10.06,10.06,0,0,1,7.49,3.33V129.16a2,2,0,0,1,.59-1.45,2,2,0,0,1,1.42-.57,1.87,1.87,0,0,1,1.41.6,2,2,0,0,1,.57,1.42V157.6a1.95,1.95,0,0,1-2,2,2,2,0,0,1-1.42-.57,1.89,1.89,0,0,1-.59-1.4v-1.14a10.06,10.06,0,0,1-7.49,3.33A10.25,10.25,0,0,1,64,158.41Zm9.51-3.24a11,11,0,0,0,3.13-2.39v-9.2a10.82,10.82,0,0,0-3.13-2.39,8.29,8.29,0,0,0-3.79-.9,6.91,6.91,0,0,0-5.22,2.06,9.61,9.61,0,0,0,0,11.66,6.91,6.91,0,0,0,5.22,2.06A8.29,8.29,0,0,0,73.51,155.17Z"/><path id="a-2" data-name="a" class="cls-2" d="M89.68,159a6.13,6.13,0,0,1-2.61-2.3,6.37,6.37,0,0,1-1-3.48,6.14,6.14,0,0,1,2.57-5.17q2.56-1.94,7.51-1.93h5.3v-.35c0-1.93-.47-3.32-1.42-4.16a6.53,6.53,0,0,0-4.45-1.28,14.47,14.47,0,0,0-3,.27,23.43,23.43,0,0,0-2.87.79,2.39,2.39,0,0,1-.57.08,1.66,1.66,0,0,1-1.63-1.66,1.7,1.7,0,0,1,1.14-1.67,19.32,19.32,0,0,1,7.58-1.57,10,10,0,0,1,5.11,1.22,7.74,7.74,0,0,1,3.07,3.18,9.33,9.33,0,0,1,1,4.23v12.4a1.85,1.85,0,0,1-.59,1.4,2,2,0,0,1-1.42.57,1.95,1.95,0,0,1-2-2v-1.14a11,11,0,0,1-8.23,3.33A8.05,8.05,0,0,1,89.68,159Zm8.78-3.66a10.14,10.14,0,0,0,3-2.34v-3.68H96.71q-6.61,0-6.62,3.46a3.24,3.24,0,0,0,1.08,2.54,5.29,5.29,0,0,0,3.57,1A7.91,7.91,0,0,0,98.46,155.34Z"/><path id="p" class="cls-2" d="M112.75,169.06a2,2,0,0,1-.57-1.43V138.76a1.93,1.93,0,0,1,2-2,2,2,0,0,1,1.42.56,1.87,1.87,0,0,1,.6,1.41v1.14a10.06,10.06,0,0,1,7.49-3.33,10.28,10.28,0,0,1,5.15,1.38,10.46,10.46,0,0,1,3.94,4,13.48,13.48,0,0,1,0,12.4,10.46,10.46,0,0,1-3.94,4,10.28,10.28,0,0,1-5.15,1.38,10.06,10.06,0,0,1-7.49-3.33v11.17a2,2,0,0,1-2,2A1.87,1.87,0,0,1,112.75,169.06ZM128.3,154a9.57,9.57,0,0,0,0-11.66,6.88,6.88,0,0,0-5.21-2.06,8.23,8.23,0,0,0-3.79.9,10.69,10.69,0,0,0-3.13,2.39v9.2a10.86,10.86,0,0,0,3.13,2.39,8.23,8.23,0,0,0,3.79.9A6.88,6.88,0,0,0,128.3,154Z"/><path id="t" class="cls-2" d="M141.14,154V140.42H138a.82.82,0,0,1-.83-.83.94.94,0,0,1,.39-.75l6-5.82a1.1,1.1,0,0,1,.75-.4.76.76,0,0,1,.59.27.87.87,0,0,1,.24.61V137h5a1.66,1.66,0,0,1,1.71,1.71,1.7,1.7,0,0,1-.48,1.21,1.64,1.64,0,0,1-1.23.5h-5v13.24q0,1.71.81,2.16a4.05,4.05,0,0,0,2,.47,5.91,5.91,0,0,0,1.75-.27l.37-.09a3.4,3.4,0,0,1,.51,0,1.62,1.62,0,0,1,1.58,1.58,1.66,1.66,0,0,1-1,1.53,8.51,8.51,0,0,1-3.64.79Q141.14,159.79,141.14,154Z"/><path id="_2" data-name="/" class="cls-1" d="M155.58,163a1.74,1.74,0,0,1-.5-1.27,2.06,2.06,0,0,1,.13-.66l11.61-34a1.93,1.93,0,0,1,.61-.88,1.74,1.74,0,0,1,1.1-.35,1.7,1.7,0,0,1,1.29.53,1.75,1.75,0,0,1,.51,1.27,2.11,2.11,0,0,1-.14.66l-11.61,34a1.78,1.78,0,0,1-.61.87,1.67,1.67,0,0,1-1.1.36A1.73,1.73,0,0,1,155.58,163Z"/><path id="_3" data-name="&gt;" class="cls-1" d="M175.24,156.31a1.72,1.72,0,0,1-.5-1.25,1.68,1.68,0,0,1,.33-1,2,2,0,0,1,.85-.68l15.78-7-15.78-7a2,2,0,0,1-.85-.68,1.65,1.65,0,0,1-.33-1,1.73,1.73,0,0,1,1.75-1.76,1.86,1.86,0,0,1,.7.13l17.49,7.85a2.87,2.87,0,0,1,1.16.94,2.25,2.25,0,0,1,.42,1.34v.35a2.24,2.24,0,0,1-.42,1.33,2.89,2.89,0,0,1-1.16,1l-17.49,7.84a1.68,1.68,0,0,1-.7.13A1.74,1.74,0,0,1,175.24,156.31Z"/></g><g id="Adapt_Logo-_solid_white" data-name="Adapt Logo- solid white"><path id="Hexagon" class="cls-2" d="M152.11,31.17V93.5l-54,31.16-54-31.16V31.17L98.13,0Z"/><path id="A-3" data-name="A" class="cls-3" d="M66.56,93.71a4.49,4.49,0,0,1-1.27-3.25,5.45,5.45,0,0,1,.5-2L91.72,27.21a7.81,7.81,0,0,1,2.29-3A5.63,5.63,0,0,1,97.62,23h1a5.65,5.65,0,0,1,3.61,1.17,7.79,7.79,0,0,1,2.28,3l25.93,61.22a5.5,5.5,0,0,1,.51,2,4.49,4.49,0,0,1-1.27,3.25A4.39,4.39,0,0,1,126.4,95a4.66,4.66,0,0,1-2.6-.77A4.89,4.89,0,0,1,122,92.19l-6.61-15.86H80.84L74.23,92.19a4.82,4.82,0,0,1-1.78,2.08,4.63,4.63,0,0,1-2.59.77A4.36,4.36,0,0,1,66.56,93.71ZM84.4,67.89h27.46l-13.73-33Z"/></g></g></g></g></svg>