<svg xmlns="http://www.w3.org/2000/svg" viewBox="0 0 410.47 410.47"><defs><style>.cls-1{fill:#fff;}</style></defs><title>Unbounded U Logo - white</title><g id="U"><path class="cls-1" d="M205.24,0C91.89,0,0,91.89,0,205.24S91.89,410.47,205.24,410.47s205.23-91.88,205.23-205.23S318.58,0,205.24,0Zm115,266.74c0,28.34-13.09,51.85-37.86,68-22.94,14.94-49,22.52-77.3,22.52S150.83,349.75,128,335h0c-24.72-16-37.79-39.58-37.79-68.23v-170h72.5V268.12c0,4.76,1.15,10.29,9.63,15.26,9.28,5.43,20.05,8.07,32.92,8.07s23.79-2.63,33-8.05c6.78-4,9.55-8.42,9.55-15.28V96.75h72.5Z" transform="translate(0 0)"/></g></svg>