<svg xmlns="http://www.w3.org/2000/svg" viewBox="0 0 90.64 104.66"><defs><style>.cls-1{fill:#fff;}</style></defs><title>logo_white</title><g id="Layer_2" data-name="Layer 2"><g id="Layer_1-2" data-name="Layer 1"><g id="Transparent_A_-_white" data-name="Transparent A - white"><polygon class="cls-1" points="33.79 56.99 56.84 56.99 45.32 29.25 33.79 56.99"/><path class="cls-1" d="M45.32,0,0,26.16V78.49l45.32,26.17L90.64,78.49V26.16ZM71.83,78.68a3.7,3.7,0,0,1-2.78,1.11,4,4,0,0,1-2.18-.64,4.11,4.11,0,0,1-1.49-1.75L59.83,64.08h-29L25.26,77.4a4.07,4.07,0,0,1-1.5,1.75,3.94,3.94,0,0,1-2.17.64,3.68,3.68,0,0,1-2.78-1.11,3.8,3.8,0,0,1-1.06-2.74,4.69,4.69,0,0,1,.42-1.7L39.94,22.85a6.57,6.57,0,0,1,1.92-2.52,4.71,4.71,0,0,1,3-1h.86a4.71,4.71,0,0,1,3,1,6.57,6.57,0,0,1,1.92,2.52L72.47,74.24a4.69,4.69,0,0,1,.42,1.7A3.8,3.8,0,0,1,71.83,78.68Z"/></g></g></g></svg>