<svg xmlns="http://www.w3.org/2000/svg" xmlns:xlink="http://www.w3.org/1999/xlink" viewBox="0 0 231.56 214.79"><defs><style>.cls-1,.cls-2,.cls-3{fill:none;}.cls-2{clip-rule:evenodd;}.cls-3{fill-rule:evenodd;}.cls-4{fill:#28aee4;}.cls-5{fill:#fff;}.cls-6{clip-path:url(#clip-path);}.cls-7{fill:#bfbfbf;}.cls-8{clip-path:url(#clip-path-2);}</style><clipPath id="clip-path" transform="translate(-32.96)"><rect class="cls-1" y="139.97" width="297.3" height="108.52"/></clipPath><clipPath id="clip-path-2" transform="translate(-32.96)"><polygon class="cls-2" points="0 248.5 297.3 248.5 297.3 139.97 0 139.97 0 248.5 0 248.5"/></clipPath></defs><title>logo_stacked</title><g id="Layer_2" data-name="Layer 2"><g id="Layer_1-2" data-name="Layer 1"><g id="Stacked"><g id="Crossbar"><path class="cls-4" d="M217.56,39.79v79.57l-68.91,39.79L79.73,119.36V39.79L148.65,0Z" transform="translate(-32.96)"/><path class="cls-5" d="M113.46,115.2l32.92-72.87a1.93,1.93,0,0,1,1.84-1.19h1.08a2,2,0,0,1,1.84,1.19l32.7,72.87A1.91,1.91,0,0,1,182,118h-4.33a2,2,0,0,1-1.84-1.19l-8-17.86H129.38l-7.91,17.86a2,2,0,0,1-1.84,1.19H115.3A1.91,1.91,0,0,1,113.46,115.2Zm51.43-23c-5.3-11.8-10.5-23.71-15.81-35.51h-.86L132.41,92.24Z" transform="translate(-32.96)"/></g><g id="Text"><g class="cls-6"><path class="cls-7" d="M55.45,199.49l-20.63-9.26a3.37,3.37,0,0,1-1.37-1.11,2.71,2.71,0,0,1-.49-1.58v-.41a2.74,2.74,0,0,1,.49-1.58,3.54,3.54,0,0,1,1.37-1.11l20.63-9.25a2.26,2.26,0,0,1,.83-.16,2,2,0,0,1,2.07,2.07,2,2,0,0,1-.39,1.16,2.28,2.28,0,0,1-1,.8l-18.61,8.28L57,195.61a2.28,2.28,0,0,1,1,.8,2,2,0,0,1,.39,1.16,2,2,0,0,1-2.07,2.07A2.47,2.47,0,0,1,55.45,199.49Z" transform="translate(-32.96)"/></g><g class="cls-8"><g class="cls-6"><path class="cls-4" d="M64.27,202.23a2.31,2.31,0,0,1-.65-1.66,2.86,2.86,0,0,1,.26-1l13.19-31.13a3.84,3.84,0,0,1,1.16-1.52,2.84,2.84,0,0,1,1.83-.6h.52a2.87,2.87,0,0,1,1.84.6,3.93,3.93,0,0,1,1.16,1.52l13.18,31.13a2.67,2.67,0,0,1,.26,1,2.24,2.24,0,0,1-2.32,2.33,2.33,2.33,0,0,1-1.32-.39,2.48,2.48,0,0,1-.91-1.06l-3.36-8.06H71.53l-3.36,8.06a2.53,2.53,0,0,1-.9,1.06,2.37,2.37,0,0,1-1.32.39A2.25,2.25,0,0,1,64.27,202.23Zm9.07-13.14h14l-7-16.8Z" transform="translate(-32.96)"/><path class="cls-4" d="M108.47,201.53a12.38,12.38,0,0,1-4.65-4.76,15.92,15.92,0,0,1,0-14.63,12.38,12.38,0,0,1,4.65-4.76,12.21,12.21,0,0,1,6.08-1.63,11.92,11.92,0,0,1,8.84,3.93V167a2.26,2.26,0,0,1,.7-1.71,2.31,2.31,0,0,1,1.68-.67,2.18,2.18,0,0,1,1.65.7,2.32,2.32,0,0,1,.68,1.68v33.55a2.31,2.31,0,0,1-2.33,2.33,2.35,2.35,0,0,1-1.68-.67,2.2,2.2,0,0,1-.7-1.66v-1.34a11.88,11.88,0,0,1-8.84,3.93A12.11,12.11,0,0,1,108.47,201.53Zm11.22-3.83a12.51,12.51,0,0,0,3.7-2.82V184a12.85,12.85,0,0,0-3.7-2.82,9.68,9.68,0,0,0-4.47-1.06,8.12,8.12,0,0,0-6.15,2.43,11.31,11.31,0,0,0,0,13.75,8.12,8.12,0,0,0,6.15,2.43A9.68,9.68,0,0,0,119.69,197.7Z" transform="translate(-32.96)"/><path class="cls-4" d="M138.77,202.23a7.29,7.29,0,0,1-3.07-2.72,7.47,7.47,0,0,1-1.14-4.11,7.26,7.26,0,0,1,3-6.1c2-1.51,5-2.27,8.87-2.27h6.26v-.42q0-3.41-1.68-4.91t-5.25-1.5a17.34,17.34,0,0,0-3.49.31,30.51,30.51,0,0,0-3.39.93,2.87,2.87,0,0,1-.67.11,1.81,1.81,0,0,1-1.34-.57,1.91,1.91,0,0,1-.57-1.4,2,2,0,0,1,1.34-2,22.77,22.77,0,0,1,9-1.87,11.74,11.74,0,0,1,6,1.45,9.17,9.17,0,0,1,3.62,3.75,11,11,0,0,1,1.16,5v14.63a2.2,2.2,0,0,1-.7,1.66,2.35,2.35,0,0,1-1.68.67,2.28,2.28,0,0,1-1.65-.67,2.25,2.25,0,0,1-.67-1.66v-1.34a13,13,0,0,1-9.72,3.93A9.66,9.66,0,0,1,138.77,202.23Zm10.37-4.32a12.21,12.21,0,0,0,3.57-2.77V190.8h-5.64c-5.2,0-7.81,1.36-7.81,4.08a3.83,3.83,0,0,0,1.27,3,6.24,6.24,0,0,0,4.21,1.14A9.36,9.36,0,0,0,149.14,197.91Z" transform="translate(-32.96)"/><path class="cls-4" d="M166,214.09a2.32,2.32,0,0,1-.68-1.68V178.34a2.32,2.32,0,0,1,2.33-2.33,2.35,2.35,0,0,1,1.68.68,2.18,2.18,0,0,1,.7,1.65v1.34a11.9,11.9,0,0,1,8.84-3.93,12.15,12.15,0,0,1,6.07,1.63,12.33,12.33,0,0,1,4.66,4.76,15.92,15.92,0,0,1,0,14.63,12.33,12.33,0,0,1-4.66,4.76,12,12,0,0,1-6.07,1.63,11.87,11.87,0,0,1-8.84-3.93v13.18a2.35,2.35,0,0,1-.67,1.71,2.31,2.31,0,0,1-1.71.67A2.16,2.16,0,0,1,166,214.09Zm18.35-17.76a11.31,11.31,0,0,0,0-13.75,8.12,8.12,0,0,0-6.15-2.43,9.75,9.75,0,0,0-4.48,1.06A13,13,0,0,0,170,184v10.85a12.6,12.6,0,0,0,3.69,2.82,9.75,9.75,0,0,0,4.48,1.06A8.12,8.12,0,0,0,184.35,196.33Z" transform="translate(-32.96)"/><path class="cls-4" d="M199.5,196.33v-16h-3.67a1,1,0,0,1-1-1,1.08,1.08,0,0,1,.46-.88l7-6.87a1.33,1.33,0,0,1,.88-.47.93.93,0,0,1,.7.31,1,1,0,0,1,.28.73v4.13h5.85a1.95,1.95,0,0,1,2,2,2,2,0,0,1-.57,1.42,1.89,1.89,0,0,1-1.44.59H204.2v15.62c0,1.34.32,2.2,1,2.56a4.84,4.84,0,0,0,2.4.54,7.07,7.07,0,0,0,2.07-.31l.44-.1a2.58,2.58,0,0,1,.6-.05,1.83,1.83,0,0,1,1.29.54,1.75,1.75,0,0,1,.57,1.32,2,2,0,0,1-1.19,1.81,10.13,10.13,0,0,1-4.29.93Q199.49,203.16,199.5,196.33Z" transform="translate(-32.96)"/></g><g class="cls-8"><g class="cls-6"><path class="cls-7" d="M216.54,206.93a2.07,2.07,0,0,1-.6-1.5,2.4,2.4,0,0,1,.16-.77l13.7-40.07a2.16,2.16,0,0,1,.72-1,2.12,2.12,0,0,1,3.41,1.71,2.58,2.58,0,0,1-.15.77l-13.7,40.07a2.18,2.18,0,0,1-.73,1,2,2,0,0,1-1.29.41A2,2,0,0,1,216.54,206.93Z" transform="translate(-32.96)"/></g><g class="cls-8"><g class="cls-6"><path class="cls-7" d="M239.74,199.05a2,2,0,0,1-.6-1.48,2,2,0,0,1,.39-1.16,2.28,2.28,0,0,1,1-.8l18.61-8.27-18.61-8.28a2.28,2.28,0,0,1-1-.8,2,2,0,0,1,1.68-3.23,2,2,0,0,1,.83.16l20.63,9.25a3.54,3.54,0,0,1,1.37,1.11,2.74,2.74,0,0,1,.49,1.58v.41a2.71,2.71,0,0,1-.49,1.58,3.37,3.37,0,0,1-1.37,1.11L242,199.49a2.16,2.16,0,0,1-.83.15A2,2,0,0,1,239.74,199.05Z" transform="translate(-32.96)"/></g></g></g></g></g></g></g></g></svg>