<svg xmlns="http://www.w3.org/2000/svg" viewBox="0 0 90.64 104.66"><defs><style>.cls-1{fill:#28aee4;}.cls-2{fill:#fff;}</style></defs><title>logo_color</title><g id="Layer_2" data-name="Layer 2"><g id="Layer_1-2" data-name="Layer 1"><g id="Lockup"><g id="Adapt_Logo-_solid_white" data-name="Adapt Logo- solid white"><path id="Hexagon" class="cls-1" d="M90.64,26.16V78.49L45.32,104.66,0,78.49V26.16L45.32,0Z"/><path id="A" class="cls-2" d="M18.81,78.68a3.8,3.8,0,0,1-1.06-2.74,4.69,4.69,0,0,1,.42-1.7L39.94,22.85a6.57,6.57,0,0,1,1.92-2.52,4.71,4.71,0,0,1,3-1h.86a4.71,4.71,0,0,1,3,1,6.57,6.57,0,0,1,1.92,2.52L72.47,74.24a4.69,4.69,0,0,1,.42,1.7,3.8,3.8,0,0,1-1.06,2.74,3.7,3.7,0,0,1-2.78,1.11,4,4,0,0,1-2.18-.64,4.11,4.11,0,0,1-1.49-1.75L59.83,64.08h-29L25.26,77.4a4.07,4.07,0,0,1-1.5,1.75,3.94,3.94,0,0,1-2.17.64A3.68,3.68,0,0,1,18.81,78.68ZM33.79,57H56.84L45.32,29.25Z"/></g></g></g></g></svg>