<svg xmlns="http://www.w3.org/2000/svg" viewBox="0 0 90.64 104.66"><defs><style>.cls-1{fill:#28aee4;}.cls-2{fill:#fff;}</style></defs><title>Asset 1</title><g id="Layer_2" data-name="Layer 2"><g id="Layer_1-2" data-name="Layer 1"><g id="Crossbar"><path class="cls-1" d="M90.64,26.16V78.49L45.32,104.66,0,78.49V26.16L45.32,0Z"/><path class="cls-2" d="M22.18,75.76,43.82,27.83A1.29,1.29,0,0,1,45,27.05h.72a1.29,1.29,0,0,1,1.21.78l21.5,47.93a1.26,1.26,0,0,1-1.21,1.85H64.4a1.31,1.31,0,0,1-1.21-.79L57.92,65.07H32.64L27.45,76.82a1.32,1.32,0,0,1-1.22.79H23.39A1.26,1.26,0,0,1,22.18,75.76ZM56,60.66C52.51,52.9,49.09,45.07,45.6,37.3H45L34.64,60.66Z"/></g></g></g></svg>