<svg xmlns="http://www.w3.org/2000/svg" viewBox="0 0 470.02 104.66"><defs><style>.cls-1{fill:#bfbfbf;}.cls-2{fill:#28aee4;}.cls-3{fill:#fff;}</style></defs><title>lockup</title><g id="Layer_2" data-name="Layer 2"><g id="Layer_1-2" data-name="Layer 1"><g id="Lockup"><g id="Adapt_Text" data-name="Adapt Text"><path id="_" data-name="&lt;" class="cls-1" d="M145.48,69.71l-32-14.37a5.32,5.32,0,0,1-2.13-1.72,4.16,4.16,0,0,1-.76-2.45v-.64a4.14,4.14,0,0,1,.76-2.45,5.26,5.26,0,0,1,2.13-1.73l32-14.36a3.66,3.66,0,0,1,1.28-.24A3.14,3.14,0,0,1,150,35a3,3,0,0,1-.6,1.8A3.52,3.52,0,0,1,147.81,38l-28.9,12.85,28.9,12.84a3.59,3.59,0,0,1,1.56,1.24,3.16,3.16,0,0,1-2.61,5A3.66,3.66,0,0,1,145.48,69.71Z"/><path id="A" class="cls-2" d="M159.16,74a3.55,3.55,0,0,1-1-2.57,4.27,4.27,0,0,1,.4-1.6L179,21.47a6.18,6.18,0,0,1,1.8-2.37,4.49,4.49,0,0,1,2.85-.92h.8a4.45,4.45,0,0,1,2.85.92,6.21,6.21,0,0,1,1.81,2.37L209.6,69.79a4.32,4.32,0,0,1,.41,1.6A3.55,3.55,0,0,1,209,74a3.44,3.44,0,0,1-2.61,1,3.64,3.64,0,0,1-2-.6,3.82,3.82,0,0,1-1.41-1.64l-5.21-12.52H170.44l-5.22,12.52a3.87,3.87,0,0,1-1.4,1.64,3.7,3.7,0,0,1-2,.6A3.44,3.44,0,0,1,159.16,74Zm14.09-20.38h21.67L184.08,27.49Z"/><path id="d" class="cls-2" d="M227.78,72.88a19.16,19.16,0,0,1-7.22-7.39,22.46,22.46,0,0,1-2.77-11.35,22.5,22.5,0,0,1,2.77-11.36,19.06,19.06,0,0,1,7.22-7.38,18.76,18.76,0,0,1,9.43-2.53A18.44,18.44,0,0,1,250.94,39V19.3A3.51,3.51,0,0,1,252,16.66a3.61,3.61,0,0,1,2.61-1.05,3.42,3.42,0,0,1,2.57,1.09,3.63,3.63,0,0,1,1,2.6V71.39A3.55,3.55,0,0,1,254.63,75,3.6,3.6,0,0,1,252,74a3.42,3.42,0,0,1-1.08-2.57V69.31a18.47,18.47,0,0,1-13.73,6.09A18.86,18.86,0,0,1,227.78,72.88Zm17.42-5.94a20,20,0,0,0,5.74-4.38V45.71a19.8,19.8,0,0,0-5.74-4.37,15.13,15.13,0,0,0-6.94-1.65,12.65,12.65,0,0,0-9.56,3.77q-3.6,3.78-3.61,10.68t3.61,10.67a12.62,12.62,0,0,0,9.56,3.77A15.12,15.12,0,0,0,245.2,66.94Z"/><path id="a-2" data-name="a" class="cls-2" d="M274.81,74A11.39,11.39,0,0,1,270,69.75a11.61,11.61,0,0,1-1.77-6.38A11.25,11.25,0,0,1,273,53.9q4.69-3.54,13.76-3.53h9.71v-.65q0-5.3-2.61-7.62c-1.73-1.55-4.45-2.33-8.14-2.33a27.44,27.44,0,0,0-5.42.48A44,44,0,0,0,275,41.7a4.8,4.8,0,0,1-1,.16,2.87,2.87,0,0,1-2.09-.89,2.92,2.92,0,0,1-.88-2.16,3.1,3.1,0,0,1,2.09-3.05A35.21,35.21,0,0,1,287,32.87a18.11,18.11,0,0,1,9.35,2.25,14.06,14.06,0,0,1,5.62,5.81,17,17,0,0,1,1.81,7.75V71.39A3.39,3.39,0,0,1,302.66,74a3.59,3.59,0,0,1-2.6,1,3.57,3.57,0,0,1-3.62-3.61V69.31a20.18,20.18,0,0,1-15.09,6.09A15,15,0,0,1,274.81,74Zm16.1-6.7A18.89,18.89,0,0,0,296.44,63V56.22h-8.75q-12.1,0-12.11,6.34a6,6,0,0,0,2,4.66q2,1.77,6.54,1.77A14.55,14.55,0,0,0,290.91,67.26Z"/><path id="p" class="cls-2" d="M317.07,92.38a3.6,3.6,0,0,1-1-2.61V36.88a3.55,3.55,0,0,1,3.61-3.61,3.67,3.67,0,0,1,2.61,1,3.45,3.45,0,0,1,1.08,2.57V39a18.43,18.43,0,0,1,13.72-6.1,18.8,18.8,0,0,1,9.44,2.53,19.2,19.2,0,0,1,7.22,7.38,22.6,22.6,0,0,1,2.77,11.36,22.56,22.56,0,0,1-2.77,11.35,19.3,19.3,0,0,1-7.22,7.39,18.89,18.89,0,0,1-9.44,2.52,18.46,18.46,0,0,1-13.72-6.09V89.77a3.56,3.56,0,0,1-3.69,3.69A3.44,3.44,0,0,1,317.07,92.38Zm28.49-27.57q3.62-3.77,3.61-10.67t-3.61-10.68A12.63,12.63,0,0,0,336,39.69a15.13,15.13,0,0,0-6.94,1.65,19.66,19.66,0,0,0-5.74,4.37V62.56a19.87,19.87,0,0,0,5.74,4.38A15.12,15.12,0,0,0,336,68.58,12.59,12.59,0,0,0,345.56,64.81Z"/><path id="t" class="cls-2" d="M369.08,64.81V39.93h-5.7a1.47,1.47,0,0,1-1.08-.44,1.43,1.43,0,0,1-.44-1.08,1.69,1.69,0,0,1,.72-1.37l10.91-10.67a2,2,0,0,1,1.37-.72,1.41,1.41,0,0,1,1.08.48,1.61,1.61,0,0,1,.44,1.12v6.42h9.07a3.08,3.08,0,0,1,2.25.88,3,3,0,0,1,.88,2.25A3.08,3.08,0,0,1,387.7,39a3,3,0,0,1-2.25.92h-9.07V64.17c0,2.09.5,3.41,1.49,4a7.48,7.48,0,0,0,3.73.85,11.17,11.17,0,0,0,3.21-.49l.68-.16a4.62,4.62,0,0,1,.92-.08,2.84,2.84,0,0,1,2,.84,2.74,2.74,0,0,1,.88,2.05A3,3,0,0,1,387.46,74a15.77,15.77,0,0,1-6.66,1.44Q369.07,75.4,369.08,64.81Z"/><path id="_2" data-name="/" class="cls-1" d="M395.52,81.26a3.24,3.24,0,0,1-.92-2.32,4.06,4.06,0,0,1,.24-1.21l21.27-62.2a3.4,3.4,0,0,1,1.12-1.6,3.13,3.13,0,0,1,2-.65,3.17,3.17,0,0,1,2.37,1,3.26,3.26,0,0,1,.92,2.33,4,4,0,0,1-.24,1.2L401,80a3.42,3.42,0,0,1-1.12,1.61,3.18,3.18,0,0,1-2,.64A3.13,3.13,0,0,1,395.52,81.26Z"/><path id="_3" data-name="&gt;" class="cls-1" d="M431.54,69a3.14,3.14,0,0,1-.32-4.09,3.59,3.59,0,0,1,1.56-1.24l28.9-12.84L432.78,38a3.52,3.52,0,0,1-1.56-1.24,3.05,3.05,0,0,1-.61-1.8,3.16,3.16,0,0,1,3.22-3.21,3.21,3.21,0,0,1,1.28.24l32,14.36a5.26,5.26,0,0,1,2.13,1.73,4.14,4.14,0,0,1,.76,2.45v.64a4.16,4.16,0,0,1-.76,2.45,5.32,5.32,0,0,1-2.13,1.72l-32,14.37a3.21,3.21,0,0,1-1.28.24A3.08,3.08,0,0,1,431.54,69Z"/></g><g id="Adapt_Logo-_solid_white" data-name="Adapt Logo- solid white"><path id="Hexagon" class="cls-2" d="M90.64,26.16V78.49L45.32,104.66,0,78.49V26.16L45.32,0Z"/><path id="A-3" data-name="A" class="cls-3" d="M18.81,78.68a3.8,3.8,0,0,1-1.06-2.74,4.69,4.69,0,0,1,.42-1.7L39.94,22.85a6.57,6.57,0,0,1,1.92-2.52,4.71,4.71,0,0,1,3-1h.86a4.71,4.71,0,0,1,3,1,6.57,6.57,0,0,1,1.92,2.52L72.47,74.24a4.69,4.69,0,0,1,.42,1.7,3.8,3.8,0,0,1-1.06,2.74,3.7,3.7,0,0,1-2.78,1.11,4,4,0,0,1-2.18-.64,4.11,4.11,0,0,1-1.49-1.75L59.83,64.08h-29L25.26,77.4a4.07,4.07,0,0,1-1.5,1.75,3.94,3.94,0,0,1-2.17.64A3.68,3.68,0,0,1,18.81,78.68ZM33.79,57H56.84L45.32,29.25Z"/></g></g></g></g></svg>