<svg version="1" xmlns="http://www.w3.org/2000/svg" width="1540" height="1540" viewBox="0 0 1155.000000 1155.000000"><path d="M563.7 7.5c-7.1 4.1-13 7.5-13.3 7.5-.2 0-2.7 1.5-5.6 3.3-2.9 1.9-6 3.7-6.8 4.1-.8.4-2.4 1.2-3.5 1.9s-7.1 4.2-13.3 7.7c-6.2 3.6-12 6.9-13 7.5-.9.5-6 3.5-11.2 6.5-5.2 3-10.4 6-11.5 6.7-1.1.7-2.7 1.5-3.5 2-.8.4-5.5 3.1-10.4 6s-9 5.3-9.2 5.3c-.2 0-6.7 3.8-14.6 8.4-7.9 4.6-16 9.3-18 10.4-2 1.2-14.4 8.3-27.5 15.8-13.1 7.6-30.5 17.7-38.8 22.4-8.2 4.8-17.4 10.1-20.3 11.8-2.9 1.8-5.5 3.2-5.8 3.2-.2 0-2.1 1.1-4.2 2.4-2 1.3-5.6 3.5-7.8 4.8-8.4 4.7-49.4 28.3-73.4 42.3-7.4 4.3-15.5 8.9-18 10.3-2.5 1.4-15.1 8.7-28 16.2s-25.5 14.8-28 16.2c-2.5 1.3-21.8 12.5-43 24.7-21.2 12.3-42.9 24.8-48.3 27.9l-9.7 5.7.2 288.9.3 289L97 877.8c10.7 6.2 21.8 12.6 24.5 14.1 2.8 1.6 9.1 5.2 14 8.1 5 2.9 11 6.4 13.5 7.8 2.5 1.4 9.3 5.3 15.3 8.8 5.9 3.5 10.9 6.4 11.1 6.4.2 0 3.5 1.9 7.2 4.2 3.8 2.3 9 5.3 11.6 6.7 2.6 1.4 8.7 4.9 13.5 7.8 4.8 2.8 10.4 6 12.3 7.1 6.9 3.8 54.7 31.5 62.8 36.3 4.5 2.7 8.4 4.9 8.7 4.9.3 0 3.3 1.7 6.7 3.8 3.5 2.1 7 4.1 7.8 4.5.8.4 7.6 4.3 15 8.7 7.4 4.4 18.7 11 25 14.6 6.3 3.6 12.2 6.9 13 7.4 4.9 3 34.3 20 34.7 20 .2 0 2 1.1 4.1 2.3 2 1.3 5.7 3.5 8.2 4.9 2.5 1.4 10.1 5.8 17 9.8 6.9 4 14.3 8.3 16.5 9.5 5 2.9 34.3 19.8 90 52 23.7 13.7 44.1 25.4 45.4 26.1 2 1.1 2.9.9 7-1.5 2.6-1.6 6.7-3.9 9.2-5.3 2.4-1.4 14.3-8.3 26.4-15.3 12.1-7 23.5-13.5 25.3-14.3 1.7-.9 3.2-1.9 3.2-2.4 0-.4.5-.8 1.1-.8.6 0 5-2.3 9.8-5.1 4.7-2.8 9.3-5.4 10.1-5.9.8-.5 7.1-4.2 14-8.2 6.9-4 13.4-7.8 14.5-8.4 1.1-.6 12.4-7 25-14.4 22-12.7 29.6-17.1 34-19.5 1.1-.6 3.9-2.3 6.2-3.8 2.4-1.5 4.5-2.7 4.7-2.7.3 0 4.3-2.2 8.8-4.9 4.6-2.7 9.9-5.8 11.8-6.9 6.5-3.6 42.3-24.4 45.4-26.3 1.7-1 3.8-2.2 4.6-2.6.8-.4 6.5-3.6 12.5-7.1 11.2-6.6 13.4-7.8 24-13.9 3.3-1.9 7.6-4.3 9.5-5.5 2.9-1.7 68-39.3 77.8-44.9 6.6-3.8 13.5-7.8 19.3-11.1 1.3-.7 2.6-1.5 2.9-1.8.3-.3 1.9-1.2 3.5-2.1 1.7-.9 14.9-8.5 29.5-16.9 14.6-8.4 27.9-16 29.5-16.9 1.7-.9 3.2-1.9 3.3-2.4.2-.4.8-.7 1.3-.7s4.2-2 8.2-4.4c3.9-2.4 10-5.8 13.4-7.7l6.3-3.4V288.4l-18.2-10.5c-10-5.7-20.5-11.8-23.4-13.4-2.8-1.7-7.8-4.5-11-6.4-3.3-1.9-7.2-4.2-8.9-5.1-1.6-1-25.9-15-54-31.2-28-16.2-53.1-30.6-55.6-32-2.5-1.4-7.6-4.4-11.3-6.7-3.8-2.2-7-4.1-7.2-4.1-.2 0-3.7-2-7.7-4.4-3.9-2.4-13.5-7.9-21.3-12.4-7.7-4.4-15.6-9-17.5-10.1-1.9-1.1-4.5-2.6-5.9-3.4-5.3-2.8-50.7-29.1-55-31.7-2.5-1.5-6.5-3.9-9-5.2-4.4-2.5-45.1-26-63.8-36.9-5.1-3-11-6.3-13-7.5-2-1.1-6-3.4-8.7-5-11.9-6.8-39.1-22.6-40.5-23.4-1.8-1.1-27.7-15.9-36.2-20.9-1.8-1-9.3-5.3-16.6-9.5-7.3-4.3-13.9-7.9-14.5-8.1-.7-.3-7 2.9-14 7z"/></svg>